<svg width="20" height="20" viewBox="0 0 20 20" fill="none" xmlns="http://www.w3.org/2000/svg">
<path fill-rule="evenodd" clip-rule="evenodd" d="M18.75 10.0001C18.75 9.8343 18.6842 9.67533 18.5669 9.55812C18.4497 9.44091 18.2908 9.37506 18.125 9.37506H3.38375L7.3175 5.44256C7.37561 5.38445 7.42171 5.31546 7.45316 5.23954C7.48461 5.16361 7.50079 5.08224 7.50079 5.00006C7.50079 4.91788 7.48461 4.8365 7.45316 4.76058C7.42171 4.68465 7.37561 4.61567 7.3175 4.55756C7.25939 4.49945 7.19041 4.45335 7.11448 4.4219C7.03856 4.39045 6.95718 4.37427 6.875 4.37427C6.79282 4.37427 6.71145 4.39045 6.63552 4.4219C6.5596 4.45335 6.49061 4.49945 6.4325 4.55756L1.4325 9.55756C1.3743 9.61561 1.32812 9.68458 1.29661 9.76052C1.2651 9.83645 1.24889 9.91785 1.24889 10.0001C1.24889 10.0823 1.2651 10.1637 1.29661 10.2396C1.32812 10.3155 1.3743 10.3845 1.4325 10.4426L6.4325 15.4426C6.49061 15.5007 6.5596 15.5468 6.63552 15.5782C6.71145 15.6097 6.79282 15.6258 6.875 15.6258C6.95718 15.6258 7.03856 15.6097 7.11448 15.5782C7.19041 15.5468 7.25939 15.5007 7.3175 15.4426C7.37561 15.3844 7.42171 15.3155 7.45316 15.2395C7.48461 15.1636 7.50079 15.0822 7.50079 15.0001C7.50079 14.9179 7.48461 14.8365 7.45316 14.7606C7.42171 14.6847 7.37561 14.6157 7.3175 14.5576L3.38375 10.6251H18.125C18.2908 10.6251 18.4497 10.5592 18.5669 10.442C18.6842 10.3248 18.75 10.1658 18.75 10.0001Z" fill="currentColor"/>
</svg>
