<svg width="19" height="20" viewBox="0 0 19 20" fill="none" xmlns="http://www.w3.org/2000/svg">
<path d="M9.50023 1.25C10.1633 1.25 10.7992 1.51339 11.268 1.98223C11.7368 2.45107 12.0002 3.08696 12.0002 3.75V6.25H7.00024V3.75C7.00024 3.08696 7.26363 2.45107 7.73247 1.98223C8.20131 1.51339 8.83719 1.25 9.50023 1.25ZM13.2502 6.25V3.75C13.2502 2.75544 12.8551 1.80161 12.1519 1.09835C11.4486 0.395088 10.4948 0 9.50023 0C8.50567 0 7.55185 0.395088 6.84858 1.09835C6.14532 1.80161 5.75024 2.75544 5.75024 3.75V6.25H3.70023C3.25133 6.2501 2.81735 6.41125 2.47718 6.70417C2.13701 6.99709 1.91322 7.40233 1.84648 7.84625L0.562735 16.4125C0.49622 16.857 0.526359 17.3106 0.651098 17.7423C0.775837 18.1741 0.992239 18.5739 1.28554 18.9144C1.57885 19.2549 1.94215 19.5282 2.35067 19.7155C2.75919 19.9029 3.20331 19.9999 3.65273 20H15.3465C15.796 20.0001 16.2403 19.9032 16.649 19.7159C17.0576 19.5287 17.4211 19.2554 17.7145 18.9149C18.008 18.5744 18.2245 18.1745 18.3493 17.7426C18.4741 17.3108 18.5043 16.8571 18.4377 16.4125L17.1527 7.84625C17.086 7.40254 16.8624 6.99747 16.5225 6.70458C16.1826 6.41169 15.7489 6.2504 15.3002 6.25H13.2502ZM12.0002 7.5V9.375C12.0002 9.54076 12.0661 9.69973 12.1833 9.81694C12.3005 9.93415 12.4595 10 12.6252 10C12.791 10 12.95 9.93415 13.0672 9.81694C13.1844 9.69973 13.2502 9.54076 13.2502 9.375V7.5H15.299C15.4486 7.50015 15.5932 7.55397 15.7065 7.65168C15.8198 7.7494 15.8943 7.88452 15.9165 8.0325L17.2015 16.5963C17.2416 16.863 17.2237 17.1353 17.1489 17.3945C17.0742 17.6537 16.9444 17.8937 16.7684 18.0982C16.5924 18.3026 16.3744 18.4667 16.1292 18.5792C15.8841 18.6917 15.6175 18.7499 15.3477 18.75H3.65273C3.38298 18.7499 3.11641 18.6917 2.87123 18.5792C2.62605 18.4667 2.40802 18.3026 2.23205 18.0982C2.05607 17.8937 1.92629 17.6537 1.85155 17.3945C1.77681 17.1353 1.75888 16.863 1.79899 16.5963L3.08399 8.0325C3.1061 7.88473 3.18041 7.74978 3.29347 7.65209C3.40652 7.5544 3.55082 7.50045 3.70023 7.5H5.75024V9.375C5.75024 9.54076 5.81608 9.69973 5.93329 9.81694C6.0505 9.93415 6.20947 10 6.37524 10C6.541 10 6.69997 9.93415 6.81718 9.81694C6.93439 9.69973 7.00024 9.54076 7.00024 9.375V7.5H12.0002Z" fill="currentColor"/>
</svg>
